# xmcd
#
# Track frame offsets: 
#        150
#        32358
#        61300
#        79753
#        96225
#        118575
#        133200
#        149500
#        167475
#        183105
#        196075
#        211425
#        226950
#        244638
#        259100
#        276028
#        299775
#        322150
#
# Disc length: 4599 seconds
#
# Revision: 0
# Processed by: cddbd v1.5.2PL0 Copyright (c) Steve Scherf et al.
# Submitted via: ExactAudioCopy v0.95b4
#
DISCID=0b11f512
DTITLE=Dr.John - Such a Funky Night
DYEAR=1973
DGENRE=
TTITLE0=Loop Garoo
TTITLE1=Walk On Gullded splinters
TTITLE2=Danse Kalinda Ba Doom
TTITLE3=Stag-A-Lee
TTITLE4=Hard Judgement
TTITLE5=Travelling Mood
TTITLE6=Mother,Mother
TTITLE7=Put A little Love In Your Heart
TTITLE8=Tipitina
TTITLE9=Mess Around
TTITLE10=Talking
TTITLE11=I've Been Hoodood
TTITLE12=Such A Night
TTITLE13=Right Place Wrong Time
TTITLE14=Let The Good Time Roll
TTITLE15=Wang Dang Doogle
TTITLE16=Mama Roux
TTITLE17=Qualified
EXTD=
EXTT0=
EXTT1=
EXTT2=
EXTT3=
EXTT4=
EXTT5=
EXTT6=
EXTT7=
EXTT8=
EXTT9=
EXTT10=
EXTT11=
EXTT12=
EXTT13=
EXTT14=
EXTT15=
EXTT16=
EXTT17=
PLAYORDER=
